# xmcd
#
# Track frame offsets:
#	150
#	15634
#	28053
#	44796
#	59730
#
# Disc length: 1024 seconds
# Revision: 0
# Processed by: cddbd v1.5.2PL0 Copyright (c) Steve Scherf et al.
# Submitted via: dBpowerAMP V12.0
#
DISCID=4503fe05
DTITLE=Autumn Rose - Autumn Rose
DYEAR=2008
DGENRE=Country
TTITLE0=She Whispers His Name
TTITLE1=Baby Don't You Let Go
TTITLE2=Love Knows My Name
TTITLE3=Higher
TTITLE4=True Believer
EXTD=
EXTT0=
EXTT1=
EXTT2=
EXTT3=
EXTT4=
PLAYORDER=
